<svg xmlns="http://www.w3.org/2000/svg" width="47" height="32" viewBox="0 0 47 32"><g><g opacity=".2"><path fill="#fff" d="M11.718-.005h19.587c8.653 0 15.692 7.176 15.692 15.999 0 8.822-7.039 15.999-15.692 15.999H11.718c-7.69 0-11.713-8.27-11.713-16.44C.005 8.06 3.67-.006 11.718-.006zm0 28.987h7.321c1.065-3.355 4.165-15 .048-25.976h-7.37c-6.05 0-8.758 6.302-8.758 12.547 0 6.51 3.07 13.429 8.759 13.429zM31.305 3.006H22.23c1.418 4.2 1.92 8.409 1.92 12.24 0 5.984-1.208 11.046-2.005 13.736h9.161c7.024 0 12.738-5.827 12.738-12.988 0-7.162-5.714-12.988-12.738-12.988zM17.09 17.31H6.382c-.815 0-1.476-.674-1.476-1.506 0-.83.661-1.506 1.476-1.506H17.09c.815 0 1.477.675 1.477 1.506 0 .832-.661 1.506-1.477 1.506z"/></g></g></svg>